<?xml version="1.0" encoding="UTF-8"?>
<svg width="462px" height="102px" viewBox="0 0 462 102" version="1.1" xmlns="http://www.w3.org/2000/svg" xmlns:xlink="http://www.w3.org/1999/xlink">
    <!-- Generator: sketchtool 55.2 (78181) - https://sketchapp.com -->
    <title>13FB81FB-FBDC-41BF-BA28-37D93CBBBC4B</title>
    <desc>Created with sketchtool.</desc>
    <g id="Maquettes-PHASE-1" stroke="none" stroke-width="1" fill="none" fill-rule="evenodd">
        <g id="N_1-Desk/1440/HP_Prospect" transform="translate(-489.000000, -2906.000000)" fill="#DBAF56">
            <g id="EUROMONEY" transform="translate(0.000000, 2627.000000)">
                <g id="TXT" transform="translate(489.000000, 209.000000)">
                    <g id="Euromoney" transform="translate(0.000000, 69.000000)">
                        <g>
                            <path d="M0,101.1 L0,1 L38.1,1 L38.1,22.4 L24.9,22.4 L24.9,37.1 L37.8,37.1 L37.8,58 L24.9,58 L24.9,79.6 L38.4,79.6 L38.4,101 L0,101 L0,101.1 Z M34.9,83.1 L21.4,83.1 L21.4,54.6 L34.3,54.6 L34.3,40.6 L21.4,40.6 L21.4,19 L34.6,19 L34.6,4.5 L3.5,4.5 L3.5,97.6 L35,97.6 L35,83.1 L34.9,83.1 Z M65.2,102.4 C45.9,102.4 39.4,99.1 39.4,84.3 L39.4,1.2 L64.1,1.2 L64.1,78.3 C64.1,81.3 64.1,81.7 64.9,81.7 C65.7,81.7 65.7,81.3 65.7,78.3 L65.7,1.2 L90.4,1.2 L90.4,83.8 C90.4,98.7 84.1,102.4 65.2,102.4 Z M87.1,4.8 L69.1,4.8 L69.1,78.3 C69.1,84 68.6,85.3 65.1,85.3 C61.5,85.3 60.9,83.8 60.9,78.3 L60.9,4.8 L42.9,4.8 L42.9,82.3 C42.9,95.5 46.8,99.1 65.5,99.1 C82.7,99.1 87.1,94.9 87.1,82.4 L87.1,4.8 Z M118.3,101.1 L118.3,66 C118.3,64 118,63.6 116.8,63.6 L116.8,101.1 L91.9,101.1 L91.9,1 L124,1 C137.9,1 143,5.5 143,18.4 L143,38.2 C143,46.7 141.8,51.4 135.5,52.4 C141.8,54.1 143,58.1 143,67.5 L143,100.9 L118.3,100.9 L118.3,101.1 Z M139.6,67.6 C139.6,56.8 136.9,54.4 129,52.5 C136.8,50.5 139.6,47.8 139.6,37.8 L139.6,18.6 C139.6,8.4 135.4,4.5 124.6,4.5 L95.4,4.5 L95.4,97.6 L113.4,97.6 L113.4,60.3 L115.9,60.3 C120.5,60.3 121.6,61.8 121.6,67.4 L121.6,97.7 L139.6,97.7 L139.6,67.6 L139.6,67.6 Z M116.7,45.6 L113.4,45.6 L113.4,18 L116.8,18 C120.4,18 121.6,19.4 121.6,23.4 L121.6,39.9 C121.6,44.4 120.3,45.6 116.7,45.6 L116.7,45.6 Z M118.3,23.7 C118.3,21.9 118.2,21.3 116.8,21.3 L116.8,42.3 C118.3,42.3 118.3,41.8 118.3,39.6 L118.3,23.7 Z M191.7,96.3 C187.8,100.8 182.9,102.3 169.7,102.3 C157.4,102.3 151.4,101.1 147.4,96.3 C145.3,93.8 144.3,91.1 144.3,85.1 L144.3,19.6 C144.3,13.5 145.3,9.4 148.2,6.3 C151.8,2.3 156.4,8.8817842e-16 169.9,8.8817842e-16 C182.7,8.8817842e-16 188,2.1 191.8,6 C194.2,8.5 195.2,11.4 195.2,17.7 L195.2,82.6 C195.1,88.6 194.5,93.1 191.7,96.3 L191.7,96.3 Z M191.8,18.6 C191.8,7.2 187.6,3.2 169.6,3.2 C151.6,3.2 147.6,7.8 147.6,20.6 L147.6,83.7 C147.6,94.9 151.5,99.1 169.5,99.1 C187.6,99.1 191.8,94.3 191.8,81.7 L191.8,18.6 L191.8,18.6 Z M169.8,84.1 C166.5,84.1 165.6,82.6 165.6,77.9 L165.6,23.7 C165.6,19.4 166.5,17.9 169.9,17.9 C172.9,17.9 173.8,19.4 173.8,23.9 L173.8,77.9 C173.8,82.8 172.9,84.1 169.8,84.1 L169.8,84.1 Z M170.5,22.9 C170.5,21.7 170.7,20.8 169.7,20.8 C168.8,20.8 168.9,21.6 168.9,22.9 L168.9,79 C168.9,80.5 168.9,81.2 169.7,81.2 C170.5,81.2 170.5,80.4 170.5,79 L170.5,22.9 L170.5,22.9 Z M246.9,101.1 L246.9,78.1 C246.9,69.7 247.1,64.3 247.1,64.3 C247.1,64.3 246.5,69.7 245.4,77.8 L242.1,101 L225,101 L221.6,77.5 C220.6,69.8 219.9,64.3 219.9,64.3 C219.9,64.3 220.1,69.8 220.1,78.1 L220.1,101 L196.7,101 L196.7,1 L230.4,1 L233.5,24.1 L236.7,1 L270.1,1 L270.1,101 L246.9,101 L246.9,101.1 Z M266.7,4.5 L240,4.5 L233.7,43.3 L227.1,4.5 L200.1,4.5 L200.1,97.6 L216.6,97.6 L216.6,28.5 L228.3,97.6 L239,97.6 L250.2,28.5 L250.2,97.6 L266.7,97.6 L266.7,4.5 Z M319.2,96.3 C315.3,100.8 310.4,102.3 297.2,102.3 C284.9,102.3 278.9,101.1 274.9,96.3 C272.8,93.8 271.7,91.1 271.7,85.1 L271.7,19.6 C271.7,13.5 272.7,9.4 275.6,6.3 C279.2,2.3 283.8,8.8817842e-16 297.3,8.8817842e-16 C310,8.8817842e-16 315.4,2.1 319.2,6 C321.6,8.5 322.7,11.4 322.7,17.7 L322.7,82.6 C322.6,88.6 322,93.1 319.2,96.3 L319.2,96.3 Z M319.3,18.6 C319.3,7.2 315.1,3.2 297.1,3.2 C279.1,3.2 275.1,7.8 275.1,20.6 L275.1,83.7 C275.1,94.9 279,99.1 297,99.1 C315.1,99.1 319.3,94.3 319.3,81.7 L319.3,18.6 L319.3,18.6 Z M297.3,84.1 C294,84.1 293.1,82.6 293.1,77.9 L293.1,23.7 C293.1,19.4 294,17.9 297.4,17.9 C300.4,17.9 301.3,19.4 301.3,23.9 L301.3,77.9 C301.3,82.8 300.4,84.1 297.3,84.1 L297.3,84.1 Z M298,22.9 C298,21.7 298.2,20.8 297.3,20.8 C296.4,20.8 296.5,21.6 296.5,22.9 L296.5,79 C296.5,80.5 296.5,81.2 297.3,81.2 C298,81.2 298,80.4 298,79 L298,22.9 L298,22.9 Z M353.7,101.1 L349.5,81.8 C348,74.3 347.3,68.9 347.3,68.9 C347.3,68.9 347.6,74.1 347.6,82.1 L347.6,101.1 L324.2,101.1 L324.2,1 L351,1 L355,16.7 C356.5,22.7 357.1,27 357.1,27 C357.1,27 357,22.4 357,16.2 L357,1 L380.2,1 L380.2,101 L353.7,101 L353.7,101.1 Z M376.8,4.5 L360.3,4.5 L360.3,51.7 L347.7,4.5 L327.6,4.5 L327.6,97.6 L344.1,97.6 L344.1,40.8 L357,97.6 L376.8,97.6 L376.8,4.5 Z M406.6,22.6 L406.6,37.6 L414.5,37.6 L414.5,58.4 L406.6,58.4 L406.6,79.5 L420.1,79.5 L420.1,100.9 L381.7,100.9 L381.7,1 L430,1 L434,23.5 L438,1 L461.4,1 L446.3,63.1 L446.3,101 L421.4,101 L421.4,62.7 L411.5,22.7 L406.6,22.7 L406.6,22.6 Z M424.9,97.5 L442.9,97.5 L442.9,62.1 L456.7,4.7 L441.4,4.7 L433.9,39.9 L426.6,4.5 L385.2,4.5 L385.2,97.6 L416.7,97.6 L416.7,83.1 L403.2,83.1 L403.2,55 L411.2,55 L411.2,41.1 L403.2,41.1 L403.2,19 L414.3,19 L424.9,61.6 L424.9,97.5 L424.9,97.5 Z"></path>
                        </g>
                    </g>
                </g>
            </g>
        </g>
    </g>
</svg>