<svg id="Calque_1" data-name="Calque 1" xmlns="http://www.w3.org/2000/svg" viewBox="0 0 46 46"><defs><style>.cls-1{fill:#fff;}.cls-2{fill:#a6843a;}</style></defs><title>icon_privilege_connect_doré</title><g id="iconPrivilege_connect" data-name="iconPrivilege connect"><path id="Path" class="cls-1" d="M37.24,2A8.85,8.85,0,0,1,46,10.93V23.08A8.84,8.84,0,0,1,37.24,32H24.33L13.41,43.75,2.83,34.29l2.82-3L13.14,38,22.69,27.7H37.24a4.59,4.59,0,0,0,4.55-4.63V10.93a4.6,4.6,0,0,0-4.55-4.64H8.76a4.59,4.59,0,0,0-4.55,4.64V22.59H0V10.93A8.85,8.85,0,0,1,8.76,2Z"/></g><polygon class="cls-2" points="28.3 27.71 28.32 27.7 22.67 27.7 13.13 37.96 5.63 31.26 2.82 34.29 13.4 43.76 24.32 32 24.33 32 28.31 27.71 28.3 27.71"/></svg>